<svg width="14" height="14" viewBox="0 0 14 14" fill="none" xmlns="http://www.w3.org/2000/svg">
<path d="M7.0625 11.3125C8.13994 11.3125 9.17325 10.8845 9.93512 10.1226C10.697 9.36075 11.125 8.32744 11.125 7.25C11.125 6.17256 10.697 5.13925 9.93512 4.37738C9.17325 3.61551 8.13994 3.1875 7.0625 3.1875C5.98506 3.1875 4.95175 3.61551 4.18988 4.37738C3.42801 5.13925 3 6.17256 3 7.25C3 8.32744 3.42801 9.36075 4.18988 10.1226C4.95175 10.8845 5.98506 11.3125 7.0625 11.3125V11.3125Z" stroke="#10637D" stroke-linecap="round" stroke-linejoin="round"/>
<path d="M11.7125 11.7125L11.6313 11.6313M11.6313 2.86875L11.7125 2.7875L11.6313 2.86875ZM2.7875 11.7125L2.86875 11.6313L2.7875 11.7125ZM7.25 1.05V1V1.05ZM7.25 13.5V13.45V13.5ZM1.05 7.25H1H1.05ZM13.5 7.25H13.45H13.5ZM2.86875 2.86875L2.7875 2.7875L2.86875 2.86875Z" stroke="#10637D" stroke-linecap="round" stroke-linejoin="round"/>
</svg>
